<?xml version="1.0" encoding="UTF-8"?>
<svg xmlns="http://www.w3.org/2000/svg" id="Layer_1_copy" data-name="Layer 1 copy" viewBox="0 0 512 512" width="512" height="512"><path d="M180,304a20,20,0,1,0-20-20A20.023,20.023,0,0,0,180,304Zm0-24a4,4,0,1,1-4,4A4,4,0,0,1,180,280Z"/><path d="M204,176a20.023,20.023,0,0,0-20,20h16a4,4,0,0,1,8,0h16A20.023,20.023,0,0,0,204,176Z"/><path d="M260,196a20.023,20.023,0,0,0-20,20h16a4,4,0,0,1,8,0h16A20.023,20.023,0,0,0,260,196Z"/><path d="M324,176a20.023,20.023,0,0,0-20,20h16a4,4,0,0,1,8,0h16A20.023,20.023,0,0,0,324,176Z"/><path d="M228,368a20,20,0,1,0-20-20A20.023,20.023,0,0,0,228,368Zm0-24a4,4,0,1,1-4,4A4,4,0,0,1,228,344Z"/><path d="M172,456a20,20,0,1,0-20-20A20.023,20.023,0,0,0,172,456Zm0-24a4,4,0,1,1-4,4A4,4,0,0,1,172,432Z"/><path d="M308,320a20,20,0,1,0-20-20A20.023,20.023,0,0,0,308,320Zm0-24a4,4,0,1,1-4,4A4,4,0,0,1,308,296Z"/><path d="M348,368a20,20,0,1,0-20-20A20.023,20.023,0,0,0,348,368Zm0-24a4,4,0,1,1-4,4A4,4,0,0,1,348,344Z"/><path d="M232,444a20,20,0,1,0,20-20A20.023,20.023,0,0,0,232,444Zm20-4a4,4,0,1,1-4,4A4,4,0,0,1,252,440Z"/><path d="M340,408a20,20,0,1,0,20,20A20.023,20.023,0,0,0,340,408Zm0,24a4,4,0,1,1,4-4A4,4,0,0,1,340,432Z"/><path d="M256,512c71.559,0,144-16.488,144-48V140.687l-19.373-19.373C392.768,114.4,400,105.952,400,96V48c0-31.512-72.441-48-144-48S112,16.488,112,48V97.667h.075c.761,9.232,7.841,17.127,19.3,23.647L112,140.687V464C112,495.512,184.441,512,256,512ZM162.091,27.391C187.065,20.045,220.416,16,256,16s68.935,4.045,93.909,11.391C376.82,35.306,384,44.069,384,48s-7.18,12.694-34.091,20.609C324.935,75.955,291.584,80,256,80s-68.935-4.045-93.909-11.391C135.18,60.694,128,51.931,128,48S135.18,35.306,162.091,27.391ZM128,96V71.27C153.279,87.577,204.861,96,256,96s102.721-8.423,128-24.73V96c0,3.931-7.18,12.694-34.091,20.609C324.935,123.955,291.584,128,256,128s-68.935-4.045-93.909-11.391C135.18,108.694,128,99.931,128,96Zm18.91,32.4C174.683,138.711,215.48,144,256,144s81.317-5.289,109.09-15.6L384,147.314V176.73C358.721,160.423,307.139,152,256,152s-102.721,8.423-128,24.73V147.314ZM384,200c0,3.931-7.18,12.694-34.091,20.609C324.935,227.955,291.584,232,256,232s-68.935-4.045-93.909-11.391C135.18,212.694,128,203.931,128,200s7.18-12.694,34.091-20.609C187.065,172.045,220.416,168,256,168s68.935,4.045,93.909,11.391C376.82,187.306,384,196.069,384,200ZM128,223.27C153.279,239.577,204.861,248,256,248s102.721-8.423,128-24.73V464c0,3.931-7.18,12.694-34.091,20.609C324.935,491.955,291.584,496,256,496s-68.935-4.045-93.909-11.391C135.18,476.694,128,467.931,128,464Z"/></svg>
